<svg width="217" height="214" viewBox="0 0 217 214" fill="none" xmlns="http://www.w3.org/2000/svg">
<path d="M109.801 0H108.663V9.97958H109.801V0Z" fill="#F44AAF"/>
<path d="M114.222 4.42249H104.245V5.561H114.222V4.42249Z" fill="#F44AAF"/>
<path d="M109.801 50.9668H108.663V60.9464H109.801V50.9668Z" fill="#F44AAF"/>
<path d="M114.222 55.3853H104.245V56.5239H114.222V55.3853Z" fill="#F44AAF"/>
<path d="M109.801 101.934H108.663V111.913H109.801V101.934Z" fill="#F44AAF"/>
<path d="M114.222 106.352H104.245V107.491H114.222V106.352Z" fill="#F44AAF"/>
<path d="M109.801 152.9H108.663V162.88H109.801V152.9Z" fill="#F44AAF"/>
<path d="M114.222 157.319H104.245V158.461H114.222V157.319Z" fill="#F44AAF"/>
<path d="M109.801 203.867H108.663V213.847H109.801V203.867Z" fill="#F44AAF"/>
<path d="M114.222 208.286H104.245V209.424H114.222V208.286Z" fill="#F44AAF"/>
<path d="M160.754 0H159.612V9.97958H160.754V0Z" fill="#F44AAF"/>
<path d="M165.171 4.42249H155.195V5.561H165.171V4.42249Z" fill="#F44AAF"/>
<path d="M160.754 50.9668H159.612V60.9464H160.754V50.9668Z" fill="#F44AAF"/>
<path d="M165.171 55.3853H155.195V56.5239H165.171V55.3853Z" fill="#F44AAF"/>
<path d="M160.754 101.934H159.612V111.913H160.754V101.934Z" fill="#F44AAF"/>
<path d="M165.171 106.352H155.195V107.491H165.171V106.352Z" fill="#F44AAF"/>
<path d="M160.754 152.9H159.612V162.88H160.754V152.9Z" fill="#F44AAF"/>
<path d="M165.171 157.319H155.195V158.461H165.171V157.319Z" fill="#F44AAF"/>
<path d="M160.754 203.867H159.612V213.847H160.754V203.867Z" fill="#F44AAF"/>
<path d="M165.171 208.286H155.195V209.424H165.171V208.286Z" fill="#F44AAF"/>
<path d="M211.704 0H210.562V9.97958H211.704V0Z" fill="#F44AAF"/>
<path d="M216.121 4.42249H206.145V5.561H216.121V4.42249Z" fill="#F44AAF"/>
<path d="M211.704 50.9668H210.562V60.9464H211.704V50.9668Z" fill="#F44AAF"/>
<path d="M216.121 55.3853H206.145V56.5239H216.121V55.3853Z" fill="#F44AAF"/>
<path d="M211.704 101.934H210.562V111.913H211.704V101.934Z" fill="#F44AAF"/>
<path d="M216.121 106.352H206.145V107.491H216.121V106.352Z" fill="#F44AAF"/>
<path d="M211.704 152.9H210.562V162.88H211.704V152.9Z" fill="#F44AAF"/>
<path d="M216.121 157.319H206.145V158.461H216.121V157.319Z" fill="#F44AAF"/>
<path d="M211.704 203.867H210.562V213.847H211.704V203.867Z" fill="#F44AAF"/>
<path d="M216.121 208.286H206.145V209.424H216.121V208.286Z" fill="#F44AAF"/>
<path d="M12.3222 106.352H2.34595V107.491H12.3222V106.352Z" fill="#F44AAF"/>
<path d="M7.90512 101.934H6.76697V111.913H7.90512V101.934Z" fill="#F44AAF"/>
<path d="M63.272 106.352H53.2957V107.491H63.272V106.352Z" fill="#F44AAF"/>
<path d="M58.8549 101.934H57.7129V111.913H58.8549V101.934Z" fill="#F44AAF"/>
<path d="M58.8549 0H57.7129V9.97958H58.8549V0Z" fill="#F44AAF"/>
<path d="M63.272 4.42249H53.2957V5.561H63.272V4.42249Z" fill="#F44AAF"/>
<path d="M58.8549 50.9668H57.7129V60.9464H58.8549V50.9668Z" fill="#F44AAF"/>
<path d="M63.272 55.3853H53.2957V56.5239H63.272V55.3853Z" fill="#F44AAF"/>
<path d="M58.8549 101.934H57.7129V111.913H58.8549V101.934Z" fill="#F44AAF"/>
<path d="M63.272 106.352H53.2957V107.491H63.272V106.352Z" fill="#F44AAF"/>
<path d="M58.8549 152.9H57.7129V162.88H58.8549V152.9Z" fill="#F44AAF"/>
<path d="M63.272 157.319H53.2957V158.461H63.272V157.319Z" fill="#F44AAF"/>
<path d="M58.8549 203.867H57.7129V213.847H58.8549V203.867Z" fill="#F44AAF"/>
<path d="M63.272 208.286H53.2957V209.424H63.272V208.286Z" fill="#F44AAF"/>
<path d="M7.90512 0H6.76697V9.97958H7.90512V0Z" fill="#F44AAF"/>
<path d="M12.3222 4.42249H2.34595V5.561H12.3222V4.42249Z" fill="#F44AAF"/>
<path d="M7.90512 50.9668H6.76697V60.9464H7.90512V50.9668Z" fill="#F44AAF"/>
<path d="M12.3222 55.3853H2.34595V56.5239H12.3222V55.3853Z" fill="#F44AAF"/>
<path d="M7.90512 101.934H6.76697V111.913H7.90512V101.934Z" fill="#F44AAF"/>
<path d="M12.3222 106.352H2.34595V107.491H12.3222V106.352Z" fill="#F44AAF"/>
<path d="M7.90512 152.9H6.76697V162.88H7.90512V152.9Z" fill="#F44AAF"/>
<path d="M12.3222 157.319H2.34595V158.461H12.3222V157.319Z" fill="#F44AAF"/>
<path d="M7.90512 203.867H6.76697V213.847H7.90512V203.867Z" fill="#F44AAF"/>
<path d="M12.3222 208.286H2.34595V209.424H12.3222V208.286Z" fill="#F44AAF"/>
<path d="M107.455 0H106.317V9.97958H107.455V0Z" fill="#56F273"/>
<path d="M111.872 4.42249H101.896V5.561H111.872V4.42249Z" fill="#56F273"/>
<path d="M107.455 50.9668H106.317V60.9464H107.455V50.9668Z" fill="#56F273"/>
<path d="M111.872 55.3853H101.896V56.5239H111.872V55.3853Z" fill="#56F273"/>
<path d="M107.455 101.934H106.317V111.913H107.455V101.934Z" fill="#56F273"/>
<path d="M111.872 106.352H101.896V107.491H111.872V106.352Z" fill="#56F273"/>
<path d="M107.455 152.9H106.317V162.88H107.455V152.9Z" fill="#56F273"/>
<path d="M111.872 157.319H101.896V158.461H111.872V157.319Z" fill="#56F273"/>
<path d="M107.455 203.867H106.317V213.847H107.455V203.867Z" fill="#56F273"/>
<path d="M111.872 208.286H101.896V209.424H111.872V208.286Z" fill="#56F273"/>
<path d="M158.401 0H157.262V9.97958H158.401V0Z" fill="#56F273"/>
<path d="M162.821 4.42249H152.845V5.561H162.821V4.42249Z" fill="#56F273"/>
<path d="M158.401 50.9668H157.262V60.9464H158.401V50.9668Z" fill="#56F273"/>
<path d="M162.821 55.3853H152.845V56.5239H162.821V55.3853Z" fill="#56F273"/>
<path d="M158.401 101.934H157.262V111.913H158.401V101.934Z" fill="#56F273"/>
<path d="M162.821 106.352H152.845V107.491H162.821V106.352Z" fill="#56F273"/>
<path d="M158.401 152.9H157.262V162.88H158.401V152.9Z" fill="#56F273"/>
<path d="M162.821 157.319H152.845V158.461H162.821V157.319Z" fill="#56F273"/>
<path d="M158.401 203.867H157.262V213.847H158.401V203.867Z" fill="#56F273"/>
<path d="M162.821 208.286H152.845V209.424H162.821V208.286Z" fill="#56F273"/>
<path d="M209.354 0H208.212V9.97958H209.354V0Z" fill="#56F273"/>
<path d="M213.771 4.42249H203.795V5.561H213.771V4.42249Z" fill="#56F273"/>
<path d="M209.354 50.9668H208.212V60.9464H209.354V50.9668Z" fill="#56F273"/>
<path d="M213.771 55.3853H203.795V56.5239H213.771V55.3853Z" fill="#56F273"/>
<path d="M209.354 101.934H208.212V111.913H209.354V101.934Z" fill="#56F273"/>
<path d="M213.771 106.352H203.795V107.491H213.771V106.352Z" fill="#56F273"/>
<path d="M209.354 152.9H208.212V162.88H209.354V152.9Z" fill="#56F273"/>
<path d="M213.771 157.319H203.795V158.461H213.771V157.319Z" fill="#56F273"/>
<path d="M209.354 203.867H208.212V213.847H209.354V203.867Z" fill="#56F273"/>
<path d="M213.771 208.286H203.795V209.424H213.771V208.286Z" fill="#56F273"/>
<path d="M9.97625 106.352H0V107.491H9.97625V106.352Z" fill="#56F273"/>
<path d="M5.55917 101.934H4.41714V111.913H5.55917V101.934Z" fill="#56F273"/>
<path d="M60.922 106.352H50.9458V107.491H60.922V106.352Z" fill="#56F273"/>
<path d="M56.505 101.934H55.3668V111.913H56.505V101.934Z" fill="#56F273"/>
<path d="M56.505 0H55.3668V9.97958H56.505V0Z" fill="#56F273"/>
<path d="M60.922 4.42249H50.9458V5.561H60.922V4.42249Z" fill="#56F273"/>
<path d="M56.505 50.9668H55.3668V60.9464H56.505V50.9668Z" fill="#56F273"/>
<path d="M60.922 55.3853H50.9458V56.5239H60.922V55.3853Z" fill="#56F273"/>
<path d="M56.505 101.934H55.3668V111.913H56.505V101.934Z" fill="#56F273"/>
<path d="M60.922 106.352H50.9458V107.491H60.922V106.352Z" fill="#56F273"/>
<path d="M56.505 152.9H55.3668V162.88H56.505V152.9Z" fill="#56F273"/>
<path d="M60.922 157.319H50.9458V158.461H60.922V157.319Z" fill="#56F273"/>
<path d="M56.505 203.867H55.3668V213.847H56.505V203.867Z" fill="#56F273"/>
<path d="M60.922 208.286H50.9458V209.424H60.922V208.286Z" fill="#56F273"/>
<path d="M5.55917 0H4.41714V9.97958H5.55917V0Z" fill="#56F273"/>
<path d="M9.97625 4.42249H0V5.561H9.97625V4.42249Z" fill="#56F273"/>
<path d="M5.55917 50.9668H4.41714V60.9464H5.55917V50.9668Z" fill="#56F273"/>
<path d="M9.97625 55.3853H0V56.5239H9.97625V55.3853Z" fill="#56F273"/>
<path d="M5.55917 101.934H4.41714V111.913H5.55917V101.934Z" fill="#56F273"/>
<path d="M9.97625 106.352H0V107.491H9.97625V106.352Z" fill="#56F273"/>
<path d="M5.55917 152.9H4.41714V162.88H5.55917V152.9Z" fill="#56F273"/>
<path d="M9.97625 157.319H0V158.461H9.97625V157.319Z" fill="#56F273"/>
<path d="M5.55917 203.867H4.41714V213.847H5.55917V203.867Z" fill="#56F273"/>
<path d="M9.97625 208.286H0V209.424H9.97625V208.286Z" fill="#56F273"/>
<path d="M107.421 9.98154H108.559V0.00195312H107.421V9.98154Z" fill="white"/>
<path d="M112.979 5.55908V4.42053L103.002 4.42053V5.55908L112.979 5.55908Z" fill="white"/>
<path d="M107.421 60.9476H108.559V50.968H107.421V60.9476Z" fill="white"/>
<path d="M112.978 56.5251V55.3866H103.002V56.5251H112.978Z" fill="white"/>
<path d="M107.421 111.914H108.559V101.934H107.421V111.914Z" fill="white"/>
<path d="M112.978 107.492V106.353H103.002V107.492H112.978Z" fill="white"/>
<path d="M107.421 162.88H108.559V152.9H107.421V162.88Z" fill="white"/>
<path d="M112.977 158.462V157.319H103.001V158.462H112.977Z" fill="white"/>
<path d="M107.421 213.844H108.559V203.865H107.421V213.844Z" fill="white"/>
<path d="M112.976 209.424V208.285H103V209.424H112.976Z" fill="white"/>
<path d="M158.367 9.98154H159.509V0.00195312H158.367V9.98154Z" fill="white"/>
<path d="M163.928 5.55945V4.4209L153.952 4.4209V5.55945L163.928 5.55945Z" fill="white"/>
<path d="M158.367 60.9476H159.509V50.968H158.367V60.9476Z" fill="white"/>
<path d="M163.927 56.5255V55.387H153.951V56.5255H163.927Z" fill="white"/>
<path d="M158.367 111.914H159.509V101.934H158.367V111.914Z" fill="white"/>
<path d="M163.927 107.492V106.354H153.951V107.492H163.927Z" fill="white"/>
<path d="M158.367 162.88H159.509V152.9H158.367V162.88Z" fill="white"/>
<path d="M163.927 158.462V157.32H153.951V158.462H163.927Z" fill="white"/>
<path d="M158.367 213.844H159.509V203.865H158.367V213.844Z" fill="white"/>
<path d="M163.926 209.424V208.285H153.949V209.424H163.926Z" fill="white"/>
<path d="M209.32 9.98154H210.458V0.00195312H209.32V9.98154Z" fill="white"/>
<path d="M214.877 5.55981V4.42126L204.901 4.42126V5.55981L214.877 5.55981Z" fill="white"/>
<path d="M209.32 60.9476H210.458V50.968H209.32V60.9476Z" fill="white"/>
<path d="M214.877 56.5259V55.3873H204.901V56.5259H214.877Z" fill="white"/>
<path d="M209.32 111.914H210.458V101.934H209.32V111.914Z" fill="white"/>
<path d="M214.877 107.493V106.354H204.901V107.493H214.877Z" fill="white"/>
<path d="M209.32 162.88H210.458V152.9H209.32V162.88Z" fill="white"/>
<path d="M214.876 158.462V157.32H204.9V158.462H214.876Z" fill="white"/>
<path d="M209.32 213.844H210.458V203.865H209.32V213.844Z" fill="white"/>
<path d="M214.875 209.424V208.286H204.899V209.424H214.875Z" fill="white"/>
<path d="M11.08 107.49V106.352H1.10381V107.49H11.08Z" fill="white"/>
<path d="M6.66225 101.934H5.52023V111.913H6.66225V101.934Z" fill="white"/>
<path d="M62.0287 107.492V106.353H52.0525V107.492H62.0287Z" fill="white"/>
<path d="M57.6082 101.934H56.47V111.913H57.6082V101.934Z" fill="white"/>
<path d="M56.4726 9.98154H57.6108V0.00195312H56.4726V9.98154Z" fill="white"/>
<path d="M62.0295 5.55872V4.4202L52.0532 4.4202V5.55872L62.0295 5.55872Z" fill="white"/>
<path d="M56.4725 60.9476H57.6106V50.968H56.4725V60.9476Z" fill="white"/>
<path d="M62.0287 56.5247V55.3862H52.0524V56.5247H62.0287Z" fill="white"/>
<path d="M56.4726 111.914H57.6108V101.934H56.4726V111.914Z" fill="white"/>
<path d="M62.0287 107.492V106.353H52.0525V107.492H62.0287Z" fill="white"/>
<path d="M56.4726 162.88H57.6108V152.9H56.4726V162.88Z" fill="white"/>
<path d="M62.0279 158.462V157.319H52.0517V158.462H62.0279Z" fill="white"/>
<path d="M56.4726 213.844H57.6108V203.865H56.4726V213.844Z" fill="white"/>
<path d="M62.0307 209.423V208.285H52.0544V209.423H62.0307Z" fill="white"/>
<path d="M5.52132 9.98154H6.66336L6.66336 0.00195312H5.52132L5.52132 9.98154Z" fill="white"/>
<path d="M11.0808 5.55762V4.41907L1.10461 4.41907V5.55762L11.0808 5.55762Z" fill="white"/>
<path d="M5.52135 60.9476H6.66339L6.66339 50.968H5.52135L5.52135 60.9476Z" fill="white"/>
<path d="M11.0802 56.5237V55.3851H1.10392V56.5237H11.0802Z" fill="white"/>
<path d="M5.52117 111.914H6.66321L6.66321 101.934H5.52117L5.52117 111.914Z" fill="white"/>
<path d="M11.08 107.49V106.352H1.10381V107.49H11.08Z" fill="white"/>
<path d="M5.52132 162.88H6.66336L6.66336 152.9H5.52132L5.52132 162.88Z" fill="white"/>
<path d="M11.0795 158.46V157.318H1.10332V158.46H11.0795Z" fill="white"/>
<path d="M5.52135 213.844H6.66339L6.66339 203.865H5.52135L5.52135 213.844Z" fill="white"/>
<path d="M11.0783 209.422V208.284H1.10201V209.422H11.0783Z" fill="white"/>
</svg>
